# xmcd
#
# Track frame offsets:
#	150
#	10040
#	19019
#	35043
#	48825
#	58450
#	71192
#	81550
#	93322
#	111087
#	124039
#	137890
#	147891
#	160022
#	174939
#	187667
#	199659
#	211324
#	227271
#	238599
#	252119
#	264671
#	276402
#
# Disc length: 3875 seconds
#
# Revision: 0
# Processed by: cddbd v1.5.2PL0 Copyright (c) Steve Scherf et al.
# Submitted via: EasyCDDAExtractor 12.0.1.1
#
DISCID=420f2117
DTITLE=Johnny Cash - Complete Recording Sessions [Cd 11] 1962-1963 Sessions
DYEAR=2005
DGENRE=Country
TTITLE0=The Danger Zone
TTITLE1=Pick A Bale O'cotton
TTITLE2=Hardin Wouldn't Run
TTITLE3=Casey Jones
TTITLE4=Waiting For A Train
TTITLE5=Peace In The Valley
TTITLE6=Busted
TTITLE7=Another Man Done Gone
TTITLE8=Were You There?
TTITLE9=Send A Picture Of Mother
TTITLE10=Tell Him I'm Gone
TTITLE11=Roughneck
TTITLE12=Chain Gang
TTITLE13=Nine Pound Hammer
TTITLE14=I'll Be All Smiles Tonight
TTITLE15=Ring Of Fire
TTITLE16=I'd Still Be There
TTITLE17=The Gifts They Gave
TTITLE18=I Heard The Bells On Christmas
TTITLE19=It Came Upon A Midnight Clear
TTITLE20=The Matador (Alt. Vocal)
TTITLE21=Still In Town
TTITLE22=I Still Miss Someone
EXTD=
EXTT0=
EXTT1=
EXTT2=
EXTT3=
EXTT4=
EXTT5=
EXTT6=
EXTT7=
EXTT8=
EXTT9=
EXTT10=
EXTT11=
EXTT12=
EXTT13=
EXTT14=
EXTT15=
EXTT16=
EXTT17=
EXTT18=
EXTT19=
EXTT20=
EXTT21=
EXTT22=
PLAYORDER=
